<svg xmlns="http://www.w3.org/2000/svg" data-name="Слой 1" viewBox="0 0 517.22 402.69"><path d="M331.61 56.81l94.74-41.78-10.5 152.5-41.69 6.59-11.94-36-12.91.3c-15.15.43-27.76 9.16-44.9 10.89-14.17 1.42-34.45-1.64-51.36-9.52-5.43-2.53-13.59-7-20.75-3.74-4.75 2.15-7 6.76-8.84 10.54-6.38 13.08-.82 21.07-7.55 28.66-3.66 4.13-9.72 6.75-12.32 5-.74-.49-1.12-1.29-2.1-6a92.06 92.06 0 01-1.78-10.07c-.53-5.24-.65-9.33-.73-13.57-.21-10.44-.32-15.66 0-17 .84-3.58 3.2-9.7 11.23-16 .64-3.12 1-6.87-.86-8.16-3.35-2.34-12.07 4.65-26.12 16.88-19.61 17.07-47.4 42.44-56.7 39.59a11.09 11.09 0 01-5.42-3.64 9.71 9.71 0 01-1.62-6.55 11.08 11.08 0 012.77-5.78c3.87-4.77 5.8-7.16 9.76-10 8-5.67 13.94-13.13 19.44-20.08 7.33-9.25 8-13.27 16-20.24 3.56-3.1 6.27-4.78 6.05-5.15-.52-.87-17 6-33.08 17.05-23.59 16.21-31.43 31.22-41.78 28.16-3.2-.95-6.4-3.54-7.42-6.83-2.14-6.86 5.89-14.54 28.17-36.37 9.18-9 16.2-15.9 18.71-18.37l9.86-10.89-13.61 8.84s-20.07 17.35-32.31 17c-2.4-.07-7.47-.15-9.45-3.35-2.25-3.64.8-9.16 2-11.27 4.05-7.34 10.73-11.3 23.81-19a78.9 78.9 0 008.87-5.76c4.68-3.57 6.34-6 13.24-9.88 8.12-4.61 20.55-9.66 38.78-10.54a42.27 42.27 0 01-9.31-15.72 41.45 41.45 0 01-1.91-9.8c2-5.19 3.06-6.12 3.06-6.12a7.33 7.33 0 014.42-1.7c3.43 0 6 3.14 7.24 4.65 0 0 5.45 6.38 16.91 13.72 5.38 3.44 5.76 5.38 17 6.46 5.06.49 7.9 5.19 20 9.82 33 12.6 37.72 23.79 62 29.63 5.9 1.42 17.64 5.61 31.29 2.38 1.06-.25 1.91-.49 2.44-.65z" fill="#eaad72"/><text transform="translate(0 316.7)" font-family="ElMessiri-Bold,El Messiri" font-weight="700" font-size="105" fill="#fff" letter-spacing=".2em">A<tspan x="88.93" y="0" letter-spacing=".18em">L</tspan><tspan x="168" y="0">EPRO</tspan></text><text transform="translate(147.61 382.42)" font-size="37" fill="#076068" letter-spacing=".2em" font-family="ElMessiri-Bold,El Messiri" font-weight="700">MASS<tspan x="127.13" y="0" letter-spacing=".18em">A</tspan><tspan x="157.84" y="0">GE</tspan></text></svg>