<svg xmlns="http://www.w3.org/2000/svg" id="outline" x="0" y="0" viewBox="0 0 600 600" xml:space="preserve"><style>.st1{fill:#ab8867}</style><radialGradient id="SVGID_1_" cx="300" cy="300" r="288" gradientUnits="userSpaceOnUse"><stop offset="0" stop-color="#fff"/><stop offset="1" stop-color="#f4e6d7"/></radialGradient><circle cx="300" cy="300" r="288" fill="url(#SVGID_1_)"/><path class="st1" d="M533.8 350.6c-24.6-5-49.6-7.2-74.6-6.6 14.4-36.4 17.4-80.4 8.7-131-.8-4.4-4.9-7.3-9.2-6.5-.2 0-.4.1-.6.1-27 7.6-52.8 19.2-76.4 34.4-15.4-41.9-41.7-78.9-76.2-107.2-3.2-2.5-7.8-2.2-10.6.7-35.5 36.1-59.2 73.2-70.8 110.4-25.2-17.1-52.9-30.1-82.2-38.3-4.3-1.1-8.6 1.6-9.7 5.8 0 .2-.1.4-.1.6-8.7 50.6-5.7 94.5 8.7 131-25-.6-50.1 1.6-74.6 6.6-2.3.5-4.2 2-5.3 4.1-1.1 2.1-1.2 4.5-.3 6.7 34.8 87.1 102.5 107.1 157.6 107.1 27.8-.2 55.4-4.8 81.8-13.6 26.4 8.8 54 13.4 81.8 13.6 55.1 0 122.8-20.1 157.6-107.1.9-2.2.7-4.6-.3-6.7-1.1-2.1-3-3.6-5.3-4.1zm-92.3-5.8c-29.3 1.8-57.9 9.7-84 23.2-1.4.3-2.7 1.1-3.7 2.1-16.2 9.3-30.3 21.9-41.5 36.9.3-14.8-1-29.5-4.1-44 9.6-40.6 34.3-75.2 73.6-102.9 22.1-15.2 46.2-27.2 71.7-35.5 6.9 47 2.8 87.4-12 120.2zM301.2 150.9c14.1 12.5 51.5 49.3 66.8 99.6-30.4 21.4-54 51.1-68 85.5-13-32.2-34.5-60.2-62.2-81.1 9.7-34.7 30.9-69.6 63.4-104zm-154.7 73.6c27.7 9 53.8 22.4 77.4 39.6 33.8 23.7 57.9 58.7 67.9 98.8-3.1 14.5-4.4 29.2-4.1 44-32.4-43.5-83.9-58.5-129.2-62.1-14.8-32.8-18.9-73.2-12-120.3zm60.7 227.9c-59.9-3.2-102.9-32.9-127.9-88.1 36.3-6.2 167-20.9 210.2 77.2-26.7 8.4-54.5 12.1-82.3 10.9zm185.6 0c-27.8 1.1-55.7-2.6-82.3-11 43.1-98 173.9-83.3 210.2-77.2-25 55.4-68 85-127.9 88.2z"/><path class="st1" d="M292 190.3h16v16h-16zm0 32h16v16h-16zm0 32h16v16h-16zm-136 0c.4 21.3 6.4 42.2 17.3 60.4l13.3-8.9c-9.2-15.7-14.2-33.4-14.7-51.6l-15.9.1zm288 0h-16c-.4 18.2-5.5 35.9-14.7 51.6l13.3 8.9c11-18.3 17-39.1 17.4-60.5z"/></svg>